<svg width="160" height="161" viewBox="0 0 160 161" fill="none" xmlns="http://www.w3.org/2000/svg">
<mask id="path-1-inside-1_64_1298" fill="white">
<path fill-rule="evenodd" clip-rule="evenodd" d="M0.593018 41.4577H40.1477H79.7024V81.0124H40.1477V120.567H79.7024V160.122H40.1477H0.593018V120.567V81.0124V41.4577Z"/>
</mask>
<path d="M0.593018 41.4577V40.4577H-0.406982V41.4577H0.593018ZM79.7024 41.4577H80.7024V40.4577H79.7024V41.4577ZM79.7024 81.0124V82.0124H80.7024V81.0124H79.7024ZM40.1477 81.0124V80.0124H39.1477V81.0124H40.1477ZM40.1477 120.567H39.1477V121.567H40.1477V120.567ZM79.7024 120.567H80.7024V119.567H79.7024V120.567ZM79.7024 160.122V161.122H80.7024V160.122H79.7024ZM0.593018 160.122H-0.406982V161.122H0.593018V160.122ZM40.1477 40.4577H0.593018V42.4577H40.1477V40.4577ZM79.7024 40.4577H40.1477V42.4577H79.7024V40.4577ZM80.7024 81.0124V41.4577H78.7024V81.0124H80.7024ZM40.1477 82.0124H79.7024V80.0124H40.1477V82.0124ZM41.1477 120.567V81.0124H39.1477V120.567H41.1477ZM40.1477 121.567H79.7024V119.567H40.1477V121.567ZM78.7024 120.567V160.122H80.7024V120.567H78.7024ZM79.7024 159.122H40.1477V161.122H79.7024V159.122ZM0.593018 161.122H40.1477V159.122H0.593018V161.122ZM-0.406982 120.567V160.122H1.59302V120.567H-0.406982ZM-0.406982 81.0124V120.567H1.59302V81.0124H-0.406982ZM-0.406982 41.4577V81.0124H1.59302V41.4577H-0.406982Z" fill="#54CAFA" mask="url(#path-1-inside-1_64_1298)"/>
<mask id="path-3-outside-2_64_1298" maskUnits="userSpaceOnUse" x="78.7024" y="0.902985" width="82" height="121" fill="black">
<rect fill="white" x="78.7024" y="0.902985" width="82" height="121"/>
<path fill-rule="evenodd" clip-rule="evenodd" d="M79.7024 1.90298H119.257H158.812V41.4577V81.0124V120.567H119.257H79.7024V81.0124H119.257V41.4577H79.7024V1.90298Z"/>
</mask>
<path d="M79.7024 1.90298V0.902985H78.7024V1.90298H79.7024ZM158.812 1.90298H159.812V0.902985H158.812V1.90298ZM158.812 120.567V121.567H159.812V120.567H158.812ZM79.7024 120.567H78.7024V121.567H79.7024V120.567ZM79.7024 81.0124V80.0124H78.7024V81.0124H79.7024ZM119.257 81.0124V82.0124H120.257V81.0124H119.257ZM119.257 41.4577H120.257V40.4577H119.257V41.4577ZM79.7024 41.4577H78.7024V42.4577H79.7024V41.4577ZM119.257 0.902985H79.7024V2.90298H119.257V0.902985ZM158.812 0.902985H119.257V2.90298H158.812V0.902985ZM159.812 41.4577V1.90298H157.812V41.4577H159.812ZM159.812 81.0124V41.4577H157.812V81.0124H159.812ZM159.812 120.567V81.0124H157.812V120.567H159.812ZM119.257 121.567H158.812V119.567H119.257V121.567ZM119.257 119.567H79.7024V121.567H119.257V119.567ZM80.7024 120.567V81.0124H78.7024V120.567H80.7024ZM79.7024 82.0124H119.257V80.0124H79.7024V82.0124ZM118.257 41.4577V81.0124H120.257V41.4577H118.257ZM79.7024 42.4577H119.257V40.4577H79.7024V42.4577ZM78.7024 1.90298V41.4577H80.7024V1.90298H78.7024Z" fill="#54CAFA" mask="url(#path-3-outside-2_64_1298)"/>
</svg>
