<svg width="86" height="87" viewBox="0 0 86 87" fill="none" xmlns="http://www.w3.org/2000/svg">
<circle cx="2.25562" cy="2.26706" r="2" fill="#ABB2BF"/>
<circle cx="22.6917" cy="2.26706" r="2" fill="#ABB2BF"/>
<circle cx="43.1278" cy="2.26706" r="2" fill="#ABB2BF"/>
<circle cx="63.5638" cy="2.26706" r="2" fill="#ABB2BF"/>
<circle cx="84" cy="2.26706" r="2" fill="#ABB2BF"/>
<circle cx="2.25562" cy="22.7032" r="2" fill="#ABB2BF"/>
<circle cx="22.6917" cy="22.7032" r="2" fill="#ABB2BF"/>
<circle cx="43.1278" cy="22.7032" r="2" fill="#ABB2BF"/>
<circle cx="63.5638" cy="22.7032" r="2" fill="#ABB2BF"/>
<circle cx="84" cy="22.7032" r="2" fill="#ABB2BF"/>
<circle cx="2.25562" cy="43.1392" r="2" fill="#ABB2BF"/>
<circle cx="22.6917" cy="43.1392" r="2" fill="#ABB2BF"/>
<circle cx="43.1278" cy="43.1392" r="2" fill="#ABB2BF"/>
<circle cx="63.5638" cy="43.1392" r="2" fill="#ABB2BF"/>
<circle cx="84" cy="43.1392" r="2" fill="#ABB2BF"/>
<circle cx="2.25562" cy="63.5753" r="2" fill="#ABB2BF"/>
<circle cx="22.6917" cy="63.5753" r="2" fill="#ABB2BF"/>
<circle cx="43.1278" cy="63.5753" r="2" fill="#ABB2BF"/>
<circle cx="63.5638" cy="63.5753" r="2" fill="#ABB2BF"/>
<circle cx="84" cy="63.5753" r="2" fill="#ABB2BF"/>
<circle cx="2.25562" cy="84.0114" r="2" fill="#ABB2BF"/>
<circle cx="22.6917" cy="84.0114" r="2" fill="#ABB2BF"/>
<circle cx="43.1278" cy="84.0114" r="2" fill="#ABB2BF"/>
<circle cx="63.5638" cy="84.0114" r="2" fill="#ABB2BF"/>
<circle cx="84" cy="84.0114" r="2" fill="#ABB2BF"/>
</svg>
