<svg width="105" height="31" viewBox="0 0 105 31" fill="none" xmlns="http://www.w3.org/2000/svg">
<path d="M45.6 7.368V10.248H42.168V21.108H45.6V24H34.8V21.108H38.232V10.248H34.8V7.368H45.6ZM49.1906 24V21.456H50.8706V13.776H49.1906V11.256H53.7626L54.4586 14.124C54.9146 13.028 55.4946 12.212 56.1986 11.676C56.9106 11.14 57.7786 10.872 58.8026 10.872C59.2346 10.872 59.6186 10.908 59.9546 10.98C60.2906 11.044 60.6066 11.136 60.9026 11.256L59.7506 14.388C59.5186 14.324 59.2866 14.276 59.0546 14.244C58.8226 14.212 58.5666 14.196 58.2866 14.196C57.4546 14.196 56.7226 14.536 56.0906 15.216C55.4666 15.896 54.9906 16.76 54.6626 17.808V21.456H57.1826V24H49.1906ZM57.8186 16.584V12.864L58.3826 11.256H60.9026L60.1946 16.584H57.8186ZM66.7493 18.732C66.8373 19.428 67.0173 19.992 67.2893 20.424C67.5693 20.848 67.9253 21.16 68.3573 21.36C68.7893 21.552 69.2733 21.648 69.8093 21.648C70.3933 21.648 70.9573 21.552 71.5013 21.36C72.0453 21.168 72.5693 20.912 73.0733 20.592L74.5973 22.656C73.9973 23.168 73.2693 23.588 72.4133 23.916C71.5653 24.244 70.5973 24.408 69.5093 24.408C68.0533 24.408 66.8333 24.12 65.8493 23.544C64.8653 22.96 64.1253 22.16 63.6293 21.144C63.1333 20.128 62.8853 18.96 62.8853 17.64C62.8853 16.384 63.1253 15.244 63.6053 14.22C64.0853 13.188 64.7853 12.368 65.7053 11.76C66.6333 11.144 67.7653 10.836 69.1013 10.836C70.3173 10.836 71.3693 11.096 72.2573 11.616C73.1533 12.136 73.8453 12.884 74.3333 13.86C74.8293 14.836 75.0773 16.008 75.0773 17.376C75.0773 17.592 75.0693 17.824 75.0533 18.072C75.0453 18.32 75.0293 18.54 75.0052 18.732H66.7493ZM69.1013 13.38C68.4213 13.38 67.8733 13.624 67.4573 14.112C67.0413 14.6 66.7893 15.38 66.7013 16.452H71.3813C71.3733 15.524 71.1933 14.78 70.8413 14.22C70.4893 13.66 69.9093 13.38 69.1013 13.38ZM77.8519 24V11.256H81.1639L81.4279 12.732C81.9959 12.092 82.5959 11.616 83.2279 11.304C83.8599 10.992 84.5799 10.836 85.3879 10.836C86.4759 10.836 87.3319 11.168 87.9559 11.832C88.5799 12.496 88.8919 13.432 88.8919 14.64V24H85.0999V15.732C85.0999 15.212 85.0639 14.8 84.9919 14.496C84.9199 14.184 84.7919 13.964 84.6079 13.836C84.4319 13.7 84.1879 13.632 83.8759 13.632C83.6119 13.632 83.3519 13.692 83.0959 13.812C82.8479 13.924 82.6039 14.088 82.3639 14.304C82.1239 14.52 81.8839 14.78 81.6439 15.084V24H77.8519ZM95.5305 18.732C95.6185 19.428 95.7985 19.992 96.0705 20.424C96.3505 20.848 96.7065 21.16 97.1385 21.36C97.5705 21.552 98.0545 21.648 98.5905 21.648C99.1745 21.648 99.7385 21.552 100.283 21.36C100.827 21.168 101.351 20.912 101.855 20.592L103.379 22.656C102.779 23.168 102.051 23.588 101.195 23.916C100.347 24.244 99.3785 24.408 98.2905 24.408C96.8345 24.408 95.6145 24.12 94.6305 23.544C93.6465 22.96 92.9065 22.16 92.4105 21.144C91.9145 20.128 91.6665 18.96 91.6665 17.64C91.6665 16.384 91.9065 15.244 92.3865 14.22C92.8665 13.188 93.5665 12.368 94.4865 11.76C95.4145 11.144 96.5465 10.836 97.8825 10.836C99.0985 10.836 100.151 11.096 101.039 11.616C101.935 12.136 102.627 12.884 103.115 13.86C103.611 14.836 103.859 16.008 103.859 17.376C103.859 17.592 103.851 17.824 103.835 18.072C103.827 18.32 103.811 18.54 103.786 18.732H95.5305ZM97.8825 13.38C97.2025 13.38 96.6545 13.624 96.2385 14.112C95.8225 14.6 95.5705 15.38 95.4825 16.452H100.163C100.155 15.524 99.9745 14.78 99.6225 14.22C99.2705 13.66 98.6905 13.38 97.8825 13.38Z" fill="white"/>
<path fill-rule="evenodd" clip-rule="evenodd" d="M18 4H12V10H6H0V16V22V28H6H12V22H18H24V16V10V4H18ZM6 22H12V16H18V10H12V16H6V22Z" fill="white"/>
</svg>
